<svg width="8" height="12" viewBox="0 0 8 12" fill="none" xmlns="http://www.w3.org/2000/svg">
<path d="M6.36406 9.19236L2.12142 4.94972C1.73089 4.5592 1.09773 4.5592 0.707204 4.94972C0.316679 5.34025 0.316679 5.97341 0.707204 6.36394L4.94984 10.6066C5.34037 10.9971 5.97353 10.9971 6.36406 10.6066C6.75458 10.2161 6.75458 9.58289 6.36406 9.19236Z" fill="#3734BF"/>
<path d="M2.12154 6.36412L6.36418 2.12147C6.75471 1.73095 6.75471 1.09779 6.36418 0.707261C5.97366 0.316736 5.34049 0.316737 4.94997 0.707261L0.70733 4.9499C0.316806 5.34043 0.316806 5.97359 0.70733 6.36411C1.09785 6.75464 1.73102 6.75464 2.12154 6.36412Z" fill="#3734BF"/>
</svg>
