<svg width="24" height="24" viewBox="0 0 24 24" fill="none" xmlns="http://www.w3.org/2000/svg">
<path d="M12 24C18.6274 24 24 18.6274 24 12C24 5.37258 18.6274 0 12 0C5.37258 0 0 5.37258 0 12C0 18.6274 5.37258 24 12 24Z" fill="#FACD55"/>
<path d="M15.5822 14.7338L9.64253 8.79409C9.40821 8.55978 9.02831 8.55978 8.794 8.79409C8.55968 9.02841 8.55968 9.4083 8.794 9.64262L14.7337 15.5823C14.968 15.8166 15.3479 15.8166 15.5822 15.5823C15.8165 15.348 15.8165 14.9681 15.5822 14.7338Z" fill="#3734BF"/>
<path d="M9.64236 15.5824L15.5821 9.64268C15.8164 9.40836 15.8164 9.02846 15.5821 8.79415C15.3477 8.55984 14.9678 8.55984 14.7335 8.79415L8.79383 14.7338C8.55951 14.9682 8.55951 15.3481 8.79383 15.5824C9.02814 15.8167 9.40804 15.8167 9.64236 15.5824Z" fill="#3734BF"/>
</svg>
