<svg width="64" height="64" viewBox="0 0 64 64" fill="none" xmlns="http://www.w3.org/2000/svg">
<circle cx="32" cy="32" r="32" fill="#F4EEFF"/>
<path d="M40.7045 39.4085L36.5308 35.2349C37.7192 33.7165 38.2833 31.8018 38.108 29.8817C37.9328 27.9615 37.0314 26.1806 35.5878 24.9024C34.1442 23.6242 32.2673 22.945 30.3401 23.0035C28.4128 23.062 26.5805 23.8537 25.2171 25.2171C23.8537 26.5805 23.062 28.4128 23.0035 30.3401C22.945 32.2673 23.6242 34.1442 24.9024 35.5878C26.1806 37.0314 27.9615 37.9328 29.8817 38.108C31.8018 38.2833 33.7165 37.7192 35.2349 36.5308L39.4085 40.7045C39.4923 40.7953 39.5935 40.8683 39.7062 40.9191C39.8189 40.9698 39.9407 40.9973 40.0642 40.9998C40.1878 41.0023 40.3106 40.9798 40.4252 40.9337C40.5399 40.8876 40.644 40.8188 40.7314 40.7314C40.8188 40.644 40.8876 40.5399 40.9337 40.4252C40.9798 40.3106 41.0023 40.1878 40.9998 40.0642C40.9973 39.9407 40.9698 39.8189 40.9191 39.7062C40.8683 39.5935 40.7953 39.4923 40.7045 39.4085ZM24.8607 30.5828C24.8639 29.4518 25.2023 28.3471 25.8331 27.4083C26.4638 26.4695 27.3586 25.7386 28.4045 25.3081C29.4504 24.8775 30.6004 24.7666 31.7093 24.9893C32.8181 25.2119 33.8362 25.7582 34.6348 26.5591C35.4333 27.36 35.9767 28.3796 36.1961 29.4892C36.4156 30.5987 36.3013 31.7484 35.8677 32.793C35.4341 33.8376 34.7007 34.7303 33.7601 35.3583C32.8194 35.9863 31.7138 36.3215 30.5828 36.3215C29.0631 36.3189 27.6067 35.7129 26.5337 34.6367C25.4607 33.5606 24.8589 32.1024 24.8607 30.5828Z" fill="#34337D"/>
</svg>
