<svg width="40" height="40" viewBox="0 0 40 40" fill="none" xmlns="http://www.w3.org/2000/svg">
<circle cx="20" cy="20" r="19" stroke="#F4EEFF" stroke-width="2"/>
<path d="M29 21.0002V24.7502C28.9983 25.3464 28.7606 25.9177 28.3391 26.3393C27.9175 26.7609 27.3462 26.9985 26.75 27.0002H25.25C25.0513 26.9997 24.8608 26.9205 24.7203 26.7799C24.5798 26.6394 24.5006 26.449 24.5 26.2502V19.5002C24.5006 19.3015 24.5798 19.1111 24.7203 18.9705C24.8608 18.83 25.0513 18.7508 25.25 18.7502H25.955C25.7718 17.3001 25.0658 15.9667 23.9694 15.0001C22.873 14.0335 21.4616 13.5002 20 13.5002C18.5384 13.5002 17.127 14.0335 16.0306 15.0001C14.9342 15.9667 14.2282 17.3001 14.045 18.7502H14.75C14.9487 18.7508 15.1392 18.83 15.2797 18.9705C15.4202 19.1111 15.4994 19.3015 15.5 19.5002V26.2502C15.4994 26.449 15.4202 26.6394 15.2797 26.7799C15.1392 26.9205 14.9487 26.9997 14.75 27.0002H13.25C12.6538 26.9985 12.0825 26.7609 11.6609 26.3393C11.2394 25.9177 11.0017 25.3464 11 24.7502V21.0002C11.0012 20.5309 11.1494 20.0738 11.4238 19.6931C11.6983 19.3123 12.0851 19.0272 12.53 18.8777C12.685 17.0032 13.5392 15.2554 14.923 13.9813C16.3068 12.7072 18.119 12 20 12C21.881 12 23.6932 12.7072 25.077 13.9813C26.4608 15.2554 27.315 17.0032 27.47 18.8777C27.9149 19.0272 28.3017 19.3123 28.5762 19.6931C28.8506 20.0738 28.9988 20.5309 29 21.0002Z" fill="#F4EEFF"/>
</svg>
