<svg width="40" height="40" viewBox="0 0 40 40" fill="none" xmlns="http://www.w3.org/2000/svg">
<path d="M24.7781 12H15.5072V13.4849H12.3367V15.913C12.3367 17.6589 13.7614 19.0836 15.5072 19.0836H15.9086C16.3099 19.9666 16.9721 20.689 17.7949 21.1706C18.6577 21.6722 19.1594 22.6355 19.1594 23.6187V25.5451H18.0156C17.6745 25.5451 17.3735 25.8261 17.3735 26.1873V27.0301H16.4102V30H23.8551V27.0301H22.8919V26.1873C22.8919 25.8462 22.6109 25.5451 22.2497 25.5451H21.1059V23.6187C21.1059 22.6154 21.6076 21.6722 22.4704 21.1706C23.2932 20.689 23.9554 19.9666 24.3567 19.0836H24.7781C26.524 19.0836 27.9487 17.6589 27.9487 15.913V13.4849H24.7781V12ZM15.5072 17.4983C14.6444 17.4983 13.942 16.796 13.942 15.9331V15.1104H15.5072V17.1973C15.5072 17.2977 15.5072 17.398 15.5072 17.4983ZM21.427 27.1906V28.7759H18.8584V27.1906H21.427ZM20.4036 17.3378L19.5808 18.1405L18.7781 17.3177L17.9955 16.5351L18.8183 15.7324L19.6009 16.515L21.4671 14.6689L22.2698 15.4916L20.4036 17.3378ZM26.3434 15.0903V15.913C26.3434 16.7759 25.641 17.4783 24.7781 17.4783H24.7581C24.7581 17.3779 24.7781 17.2776 24.7781 17.1773V15.0903H26.3434Z" fill="#F4EEFF"/>
<rect x="17.3533" y="13.8059" width="5.41806" height="4.81605" fill="#F4EEFF"/>
<rect x="18.5574" y="26.6489" width="3.2107" height="2.40803" fill="#F4EEFF"/>
<circle cx="20" cy="20" r="19" stroke="#F4EEFF" stroke-width="2"/>
</svg>
