<svg width="68" height="85" viewBox="0 0 68 85" fill="none" xmlns="http://www.w3.org/2000/svg">
<g filter="url(#filter0_dii)">
<circle cx="34" cy="28" r="28" fill="#D0D0F5"/>
<circle cx="34" cy="28" r="28" fill="#F4EEFF"/>
<circle cx="34" cy="28" r="27.5" stroke="url(#paint0_linear)"/>
</g>
<path d="M34.7367 42C34.1386 42 33.5842 41.7038 33.2525 41.2079L26.2612 30.7383C26.235 30.6982 26.2125 30.6565 26.1944 30.6136C24.889 28.8188 24.2001 26.6995 24.2001 24.4725C24.2001 21.4989 25.475 18.656 27.6974 16.6708C29.9503 14.6579 32.8597 13.7311 35.8936 14.0677C40.7852 14.6065 44.6784 18.5474 45.1507 23.4365C45.4 26.015 44.7002 28.5752 43.1817 30.6459C43.1711 30.6612 43.1598 30.6746 43.1483 30.6879L36.2269 41.1992C35.8971 41.6992 35.3423 41.9981 34.7427 42C34.7408 42 34.7389 42 34.7367 42ZM27.5794 30.0729L34.4734 40.3968C34.5561 40.5207 34.6562 40.5748 34.738 40.5378C34.8016 40.5378 34.9205 40.5188 35.001 40.3959L41.9724 29.8103C41.9951 29.7761 42.021 29.7428 42.0488 29.7132C43.3196 27.9442 43.903 25.7686 43.6921 23.5778C43.2853 19.3728 39.9375 15.9848 35.7323 15.5215C33.119 15.2322 30.6139 16.0286 28.6761 17.76C26.7635 19.468 25.6669 21.9152 25.6669 24.4725C25.6669 26.4416 26.2924 28.3114 27.4752 29.8815C27.5208 29.9413 27.5551 30.0051 27.5794 30.0729ZM34.7292 29.1579C32.0729 29.1579 29.9119 27.0031 29.9119 24.3543C29.9119 21.7055 32.0729 19.5507 34.7292 19.5507C37.385 19.5507 39.5459 21.7055 39.5459 24.3543C39.5459 27.0031 37.385 29.1579 34.7292 29.1579ZM34.7292 21.0133C32.8816 21.0133 31.3787 22.5119 31.3787 24.3543C31.3787 26.1967 32.8816 27.6954 34.7292 27.6954C36.5763 27.6954 38.0792 26.1967 38.0792 24.3543C38.0792 22.5119 36.5763 21.0133 34.7292 21.0133Z" fill="#36317B" stroke="#36317B" stroke-width="0.5"/>
<defs>
<filter id="filter0_dii" x="0" y="-5" width="68" height="90" filterUnits="userSpaceOnUse" color-interpolation-filters="sRGB">
<feFlood flood-opacity="0" result="BackgroundImageFix"/>
<feColorMatrix in="SourceAlpha" type="matrix" values="0 0 0 0 0 0 0 0 0 0 0 0 0 0 0 0 0 0 127 0" result="hardAlpha"/>
<feMorphology radius="10" operator="erode" in="SourceAlpha" result="effect1_dropShadow"/>
<feOffset dy="23"/>
<feGaussianBlur stdDeviation="8"/>
<feComposite in2="hardAlpha" operator="out"/>
<feColorMatrix type="matrix" values="0 0 0 0 0 0 0 0 0 0 0 0 0 0 0 0 0 0 0.15 0"/>
<feBlend mode="normal" in2="BackgroundImageFix" result="effect1_dropShadow"/>
<feBlend mode="normal" in="SourceGraphic" in2="effect1_dropShadow" result="shape"/>
<feColorMatrix in="SourceAlpha" type="matrix" values="0 0 0 0 0 0 0 0 0 0 0 0 0 0 0 0 0 0 127 0" result="hardAlpha"/>
<feMorphology radius="4" operator="dilate" in="SourceAlpha" result="effect2_innerShadow"/>
<feOffset dy="-5"/>
<feGaussianBlur stdDeviation="9"/>
<feComposite in2="hardAlpha" operator="arithmetic" k2="-1" k3="1"/>
<feColorMatrix type="matrix" values="0 0 0 0 1 0 0 0 0 1 0 0 0 0 1 0 0 0 0.25 0"/>
<feBlend mode="normal" in2="shape" result="effect2_innerShadow"/>
<feColorMatrix in="SourceAlpha" type="matrix" values="0 0 0 0 0 0 0 0 0 0 0 0 0 0 0 0 0 0 127 0" result="hardAlpha"/>
<feMorphology radius="6" operator="dilate" in="SourceAlpha" result="effect3_innerShadow"/>
<feOffset dy="-6"/>
<feGaussianBlur stdDeviation="5.5"/>
<feComposite in2="hardAlpha" operator="arithmetic" k2="-1" k3="1"/>
<feColorMatrix type="matrix" values="0 0 0 0 0.344834 0 0 0 0 0.322222 0 0 0 0 0.483333 0 0 0 0.5 0"/>
<feBlend mode="normal" in2="effect2_innerShadow" result="effect3_innerShadow"/>
</filter>
<linearGradient id="paint0_linear" x1="34" y1="0" x2="34" y2="56" gradientUnits="userSpaceOnUse">
<stop stop-color="#9D93DA" stop-opacity="0.72"/>
<stop offset="1" stop-color="white" stop-opacity="0"/>
</linearGradient>
</defs>
</svg>
