<svg width="24" height="24" viewBox="0 0 24 24" fill="none" xmlns="http://www.w3.org/2000/svg">
<g>
<path d="M21 13.0002V16.7502C20.9983 17.3464 20.7606 17.9177 20.3391 18.3393C19.9175 18.7609 19.3462 18.9985 18.75 19.0002H17.25C17.0513 18.9997 16.8608 18.9205 16.7203 18.7799C16.5798 18.6394 16.5006 18.449 16.5 18.2502V11.5002C16.5006 11.3015 16.5798 11.1111 16.7203 10.9706C16.8608 10.83 17.0513 10.7508 17.25 10.7502H17.955C17.7718 9.30014 17.0658 7.9667 15.9694 7.0001C14.873 6.0335 13.4616 5.50017 12 5.50017C10.5384 5.50017 9.12696 6.0335 8.03058 7.0001C6.93419 7.9667 6.22818 9.30014 6.045 10.7502H6.75C6.94874 10.7508 7.13917 10.83 7.2797 10.9706C7.42022 11.1111 7.49943 11.3015 7.5 11.5002V18.2502C7.49943 18.449 7.42022 18.6394 7.2797 18.7799C7.13917 18.9205 6.94874 18.9997 6.75 19.0002H5.25C4.6538 18.9985 4.08251 18.7609 3.66093 18.3393C3.23935 17.9177 3.00174 17.3464 3 16.7502V13.0002C3.00117 12.5309 3.14939 12.0738 3.42383 11.6931C3.69826 11.3123 4.08512 11.0272 4.53 10.8777C4.68502 9.00315 5.5392 7.25537 6.92299 5.9813C8.30677 4.70722 10.119 4 12 4C13.881 4 15.6932 4.70722 17.077 5.9813C18.4608 7.25537 19.315 9.00315 19.47 10.8777C19.9149 11.0272 20.3017 11.3123 20.5762 11.6931C20.8506 12.0738 20.9988 12.5309 21 13.0002Z" fill="#F4EEFF"/>
</g>

</svg>
