<svg width="32" height="32" fill="none" xmlns="http://www.w3.org/2000/svg"><g clip-path="url(#clip0)" fill="#34337D"><path d="M16 5.342c3.472 0 3.883.013 5.254.076 1.267.058 1.955.27 2.414.447a4.306 4.306 0 012.467 2.468c.178.458.39 1.146.447 2.413.063 1.371.076 1.782.076 5.254 0 3.47-.013 3.882-.076 5.253-.057 1.267-.27 1.956-.447 2.414a4.305 4.305 0 01-2.467 2.467c-.459.178-1.147.39-2.414.448-1.37.062-1.782.075-5.254.075-3.471 0-3.882-.013-5.253-.075-1.267-.058-1.956-.27-2.414-.448a4.306 4.306 0 01-2.467-2.467c-.178-.459-.39-1.147-.447-2.414-.063-1.371-.076-1.782-.076-5.254 0-3.47.013-3.882.076-5.253.057-1.267.27-1.956.447-2.414a4.305 4.305 0 012.467-2.467c.458-.178 1.147-.39 2.414-.448 1.371-.062 1.782-.075 5.253-.075zm0-2.343c-3.53 0-3.973.015-5.36.079-1.383.063-2.328.282-3.155.604a6.648 6.648 0 00-3.802 3.802c-.321.827-.541 1.772-.604 3.155C3.015 12.027 3 12.47 3 16c0 3.531.015 3.974.079 5.36.063 1.384.283 2.329.604 3.156a6.648 6.648 0 003.802 3.802c.827.322 1.772.541 3.156.605 1.386.063 1.829.078 5.36.078 3.53 0 3.973-.015 5.36-.078 1.383-.064 2.328-.283 3.155-.605a6.649 6.649 0 003.802-3.802c.321-.827.541-1.772.604-3.155.063-1.387.078-1.83.078-5.36 0-3.53-.015-3.974-.078-5.36-.063-1.384-.283-2.329-.604-3.156a6.648 6.648 0 00-3.802-3.802c-.827-.321-1.772-.54-3.156-.604C19.974 3.015 19.531 3 16 3z"/><path d="M16 9.324a6.675 6.675 0 100 13.351 6.675 6.675 0 000-13.35zm0 11.01a4.334 4.334 0 110-8.668 4.334 4.334 0 010 8.667zM22.94 10.62a1.56 1.56 0 100-3.12 1.56 1.56 0 000 3.12z"/></g></svg>