<svg width="18" height="18" viewBox="0 0 18 18" fill="none" xmlns="http://www.w3.org/2000/svg">
<path d="M17.7045 16.4085L13.5308 12.2349C14.7192 10.7165 15.2833 8.80181 15.108 6.88165C14.9328 4.9615 14.0314 3.18059 12.5878 1.90237C11.1442 0.624161 9.2673 -0.0550021 7.34005 0.00348691C5.4128 0.0619759 3.58051 0.853709 2.21711 2.21711C0.853709 3.58051 0.0619759 5.4128 0.00348691 7.34005C-0.0550021 9.2673 0.624161 11.1442 1.90237 12.5878C3.18059 14.0314 4.9615 14.9328 6.88165 15.108C8.80181 15.2833 10.7165 14.7192 12.2349 13.5308L16.4085 17.7045C16.4923 17.7953 16.5935 17.8683 16.7062 17.9191C16.8189 17.9698 16.9407 17.9973 17.0642 17.9998C17.1878 18.0023 17.3106 17.9798 17.4252 17.9337C17.5399 17.8876 17.644 17.8188 17.7314 17.7314C17.8188 17.644 17.8876 17.5399 17.9337 17.4252C17.9798 17.3106 18.0023 17.1878 17.9998 17.0642C17.9973 16.9407 17.9698 16.8189 17.9191 16.7062C17.8683 16.5935 17.7953 16.4923 17.7045 16.4085ZM1.86066 7.58277C1.86395 6.45176 2.20233 5.34709 2.83308 4.40828C3.46382 3.46947 4.35864 2.73864 5.4045 2.30809C6.45037 1.87755 7.60037 1.7666 8.70925 1.98926C9.81814 2.21192 10.8362 2.7582 11.6348 3.55911C12.4333 4.36002 12.9767 5.37963 13.1961 6.48916C13.4156 7.59868 13.3013 8.74835 12.8677 9.79297C12.4341 10.8376 11.7007 11.7303 10.7601 12.3583C9.81944 12.9863 8.71379 13.3215 7.58277 13.3215C6.06311 13.3189 4.60668 12.7129 3.53367 11.6367C2.46066 10.5606 1.8589 9.10244 1.86066 7.58277Z" fill="#34337D"/>
</svg>
