<svg width="32" height="32" viewBox="0 0 32 32" fill="none" xmlns="http://www.w3.org/2000/svg">
<path d="M26.3386 11.2276C26.3541 11.455 26.3541 11.6835 26.3541 11.913C26.3542 18.9199 20.9881 27 11.1764 27V26.9958C8.27788 26.9996 5.43945 26.1743 3 24.6182C3.4214 24.6683 3.84539 24.6938 4.2698 24.6946C6.67226 24.697 9.00569 23.896 10.8946 22.4203C9.78139 22.3995 8.70256 22.0334 7.80898 21.3732C6.9154 20.7129 6.25176 19.7916 5.91089 18.7379C6.71014 18.891 7.53404 18.8599 8.3193 18.647C7.11217 18.4046 6.02655 17.7546 5.24654 16.8073C4.46653 15.86 4.04016 14.6737 4.03973 13.4495V13.3823C4.78156 13.7934 5.61198 14.021 6.46092 14.046C5.33144 13.2963 4.53189 12.1469 4.22509 10.8318C3.91829 9.51665 4.1273 8.13474 4.80958 6.96744C6.14894 8.60539 7.81985 9.94506 9.71385 10.8995C11.6079 11.8539 13.6826 12.4018 15.8034 12.5075C15.5921 11.6026 15.6234 10.6585 15.8942 9.76943C16.165 8.88038 16.6658 8.07755 17.3466 7.4412C17.8574 6.9637 18.4578 6.59087 19.1135 6.34402C19.7692 6.09716 20.4674 5.98112 21.1683 6.0025C21.8691 6.02388 22.5589 6.18227 23.1981 6.46864C23.8374 6.755 24.4136 7.16372 24.894 7.67146C26.0886 7.43729 27.2342 7.002 28.2813 6.38438C27.8832 7.61226 27.0498 8.65454 25.9363 9.31723C26.9936 9.19295 28.0262 8.91171 28.9996 8.4829C28.2835 9.54754 27.3825 10.477 26.3386 11.2276Z" fill="#34337D"/>
</svg>
