<svg width="28" height="28" viewBox="0 0 28 28" fill="none" xmlns="http://www.w3.org/2000/svg">
<path d="M14 0C11.2311 0 8.52431 0.821086 6.22202 2.35943C3.91973 3.89777 2.12532 6.08427 1.06569 8.64243C0.00606596 11.2006 -0.271181 14.0155 0.269012 16.7313C0.809205 19.447 2.14258 21.9416 4.10051 23.8995C6.05845 25.8574 8.55301 27.1908 11.2687 27.731C13.9845 28.2712 16.7994 27.9939 19.3576 26.9343C21.9157 25.8747 24.1022 24.0803 25.6406 21.778C27.1789 19.4757 28 16.7689 28 14C28 10.287 26.525 6.72601 23.8995 4.1005C21.274 1.475 17.713 0 14 0ZM23.15 21.74L17.43 16C17.6156 15.6877 17.7569 15.3511 17.85 15H25.94C25.7359 17.4827 24.7603 19.8394 23.15 21.74ZM2.05001 15H10.14C10.2331 15.3511 10.3745 15.6877 10.56 16L4.85001 21.74C3.23607 19.8406 2.25698 17.4838 2.05001 15ZM4.85001 6.26L10.57 12C10.3845 12.3123 10.2431 12.6489 10.15 13H2.05001C2.25698 10.5162 3.23607 8.15935 4.85001 6.26ZM12.59 15.41C12.3105 15.1302 12.1203 14.7738 12.0433 14.3859C11.9663 13.998 12.006 13.596 12.1575 13.2307C12.3089 12.8654 12.5652 12.5531 12.8941 12.3335C13.2229 12.1138 13.6095 11.9966 14.005 11.9966C14.4005 11.9966 14.7871 12.1138 15.1159 12.3335C15.4448 12.5531 15.7011 12.8654 15.8526 13.2307C16.004 13.596 16.0437 13.998 15.9667 14.3859C15.8898 14.7738 15.6995 15.1302 15.42 15.41C15.2343 15.596 15.0137 15.7435 14.7709 15.8441C14.5281 15.9448 14.2678 15.9966 14.005 15.9966C13.7422 15.9966 13.4819 15.9448 13.2391 15.8441C12.9963 15.7435 12.7758 15.596 12.59 15.41ZM16 10.57C15.6862 10.3922 15.3498 10.2576 15 10.17V2.05C17.4827 2.25414 19.8394 3.22968 21.74 4.84L16 10.57ZM13 10.17C12.6502 10.2576 12.3138 10.3922 12 10.57L6.26001 4.85C8.15936 3.23606 10.5162 2.25697 13 2.05V10.17ZM12 17.43C12.3123 17.6155 12.6489 17.7569 13 17.85V25.94C10.5173 25.7359 8.16062 24.7603 6.26001 23.15L12 17.43ZM15 17.85C15.3511 17.7569 15.6877 17.6155 16 17.43L21.72 23.15C19.8261 24.7601 17.4769 25.739 15 25.95V17.85ZM17.86 13C17.7669 12.6489 17.6256 12.3123 17.44 12L23.16 6.28C24.7665 8.17518 25.7418 10.5243 25.95 13H17.86Z" fill="#36317B"/>
</svg>
